<svg width="33" height="33" viewBox="0 0 33 33" fill="none" xmlns="http://www.w3.org/2000/svg">
<path fill-rule="evenodd" clip-rule="evenodd" d="M19.5369 29.9825H14.2035C9.17553 29.9825 6.66087 29.9825 5.09953 28.4198C3.5382 26.8572 3.53687 24.3438 3.53687 19.3158V13.9825C3.53687 8.95451 3.53687 6.43984 5.09953 4.87851C6.6622 3.31717 9.18886 3.31584 14.2435 3.31584C15.0515 3.31584 15.6982 3.31584 16.2435 3.33851C16.2258 3.44517 16.2169 3.55362 16.2169 3.66384L16.2035 7.44251C16.2035 8.90517 16.2035 10.1985 16.3435 11.2398C16.4955 12.3692 16.8435 13.4985 17.7662 14.4212C18.6862 15.3412 19.8169 15.6905 20.9462 15.8425C21.9875 15.9825 23.2809 15.9825 24.7435 15.9825H30.1462C30.2035 16.6945 30.2035 17.5692 30.2035 18.7332V19.3158C30.2035 24.3438 30.2035 26.8585 28.6409 28.4198C27.0782 29.9812 24.5649 29.9825 19.5369 29.9825Z" fill="#A273F2"/>
<path d="M26.6727 10.8052L21.3927 6.0545C19.89 4.70117 19.1394 4.02384 18.2154 3.6705L18.2034 7.31583C18.2034 10.4585 18.2034 12.0305 19.1794 13.0065C20.1554 13.9825 21.7274 13.9825 24.87 13.9825H29.6434C29.1607 13.0438 28.294 12.2652 26.6727 10.8052Z" fill="#A273F2"/>
</svg>
